<svg xmlns="http://www.w3.org/2000/svg" version="1.1" viewBox="-0.5 0.5 640 170">
  <g transform="translate(250.09478,-386.79376)">
    <g transform="translate(-340.16236,-123.63782)">
      <path
        fill="rgb(245, 245, 245)"
        d="m306.1,628.8h24.6v-2.9h-27.7v40.1h28.3v-3h-25.3v-15.8h23.5v-2.8h-23.5v-15.6h0.1zm69.8,37.1h3v-40.1h-3.8l-15.1,23.4-15.3-23.4h-3.7v40.1h3.1v-35.6l15.5,23.5h1l15.3-23.5v35.6zm18.2,0v-40.1h-3v40.1h3zm40.2-0.2-22-20.7,20.2-18.9v-0.3h-3.7l-19.5,18.3v-18.3h-3.1v40h3.1v-19.7l21.1,19.8h3.9v-0.2zm41.7,0.2-18-40.1h-3.4l-18,40.1h3.3l4.4-9.8h23.9l4.4,9.8h3.4zm-30.5-12.7,10.8-24.4,10.8,24.4h-21.6z"/>
      <path
        fill="rgb(245, 245, 245)"
        d="m315.9,601.6v-25.3h34.3v-11.9h-34.3v-18.6h36.2v-12.4h-49.1v68.2h12.9zm110.2-0.9-20.7-23.3c13-2.6,17.3-12.1,17.3-21.5,0-11.8-8.5-22.5-24.6-22.6-10.8,0-21.7-0.1-32.5-0.1v68.4h12.9v-22.8h13.1l19.8,22.8h14.7v-0.9zm-28-55.4c8.1,0,11.7,5.5,11.7,10.9s-3.5,10.9-11.7,10.9h-19.6v-21.9h19.6v0.1zm92.4,56.3h14.1l-30.6-68.3h-14.1l-30.6,68.3h14l5.9-12.9h35.7l5.6,12.9zm-10.9-24.9h-25.4l12.7-29.1,12.7,29.1zm45.2-43.4h-10.4v68.3h12.9v-45.5l36.3,45.5h10.4v-68.3h-12.9v46l-36.3-46zm121.6,0h-16l-26,28.9v-28.9h-12.9v68.3h12.9v-30.3l28.6,30.3h15.9v-0.8l-32.9-34.4,30.4-32.7v-0.4zm66.9,68.3h14.1l-30.6-68.3h-14.1l-30.7,68.3h14l5.9-12.9h35.7l5.7,12.9zm-10.9-24.9h-25.4l12.7-29.1,12.7,29.1z"/>
      <path fill="rgb(245, 245, 245)" d="m167.1,680.1c46.4,4.1,87.4-30.3,91.5-76.7s-30.3-87.4-76.7-91.5-87.4,30.3-91.5,76.7c-4.1,46.5,30.2,87.4,76.7,91.5"/>
      <polygon points="219.6,583,213.4,570.7,213.4,570.7,231.8,576.8" fill="rgb(25, 40, 45)"/>
      <polygon points="141,612.5,124.2,606.9,124.2,606.9,118.6,623.7" fill="rgb(25, 40, 45)"/>
      <polygon points="181.5,638.6,175.9,655.4,175.9,655.4,192.7,661" fill="rgb(25, 40, 45)"/>
      <polygon points="171,603.1,138.4,619.4,138.4,619.4,187.2,635.7" fill="rgb(25, 40, 45)"/>
      <polygon points="209.5,578,175,566.5,175,566.5,163.5,601" fill="rgb(25, 40, 45)"/>
      <polygon points="175,545.5,175,545.5,184.4,564.5,203.5,555.1,194,536" fill="rgb(25, 40, 45)"/>
      <polygon points="148.2,544.3,148.2,544.3,159.9,548.2,179,538.7,167.4,534.8" fill="rgb(25, 40, 45)"/>
    </g>
  </g>
</svg>
