<svg id="Ebene_2" data-name="Ebene 2" xmlns="http://www.w3.org/2000/svg" viewBox="0 0 466.37 138.63">
  <defs>
    <style>
      .cls-1 {
        fill: #fff;
      }
    </style>
  </defs>
  <g id="Ebene_1-2" data-name="Ebene 1">
    <g>
      <path class="cls-1" d="m75.36.27C37.22-3.07,3.6,25.14.27,63.27c-3.34,38.13,24.87,71.75,63.01,75.09,38.14,3.34,71.75-24.87,75.09-63.01C141.7,37.22,113.49,3.6,75.36.27Zm10.01,20.52l7.79,15.62-15.62,7.79-7.79-15.61,15.62-7.79Zm-21.8-1.03l9.53,3.19-15.74,7.85-9.53-3.19,15.74-7.85Zm-35.5,59.21l13.82,4.63-18.45,9.2,4.62-13.82Zm11.69,10.22l26.72-13.32,13.32,26.72-40.04-13.4Zm30.77,29.6l4.62-13.82,9.2,18.45-13.82-4.63Zm-10.21-44.69l9.47-28.32,28.32,9.47-37.79,18.84Zm46.06-14.78l-5.03-10.08,15.11,5.05-10.08,5.03Z"/>
      <g>
        <path class="cls-1" d="m185.56,31.23v11.08h21.33v9.57h-21.33v17.64h-12.09V21.67h35.25v9.57h-23.16Z"/>
        <path class="cls-1" d="m236.09,56.05h-9.51v13.47h-12.09V21.67h21.26c12.56,0,19.76,6.01,19.76,16.68,0,7.31-3.06,12.58-8.62,15.38l9.98,15.79h-13.72l-7.06-13.47Zm-.34-9.57c5.23,0,8.29-2.67,8.29-7.72s-3.06-7.52-8.29-7.52h-9.17v15.25h9.17Z"/>
        <path class="cls-1" d="m274.47,60.7l-3.46,8.82h-12.43l20.51-47.85h12.43l20.03,47.85h-12.9l-3.39-8.82h-20.78Zm10.46-26.93l-6.93,17.7h13.72l-6.79-17.7Z"/>
        <path class="cls-1" d="m347.59,69.52l-21.87-29.46v29.46h-11.34V21.67h10.66l21.94,29.53v-29.53h11.28v47.85h-10.66Z"/>
        <path class="cls-1" d="m386.16,50.72l-6.32,7.04v11.76h-12.09V21.67h12.09v20.71l18.2-20.71h13.99l-17.66,19.82,18.81,28.03h-14.47l-12.56-18.8Z"/>
        <path class="cls-1" d="m429.29,60.7l-3.46,8.82h-12.43l20.51-47.85h12.43l20.03,47.85h-12.9l-3.39-8.82h-20.78Zm10.46-26.93l-6.93,17.7h13.72l-6.79-17.7Z"/>
        <g>
          <path class="cls-1" d="m380.43,123.42v-38.92h9.83v38.92h-9.83Z"/>
          <path class="cls-1" d="m191.04,112.47h-7.73v10.95h-9.83v-38.92h17.29c10.22,0,16.08,4.89,16.08,13.57,0,5.95-2.49,10.23-7.02,12.51l8.12,12.84h-11.16l-5.75-10.95Zm-.28-7.78c4.25,0,6.74-2.17,6.74-6.28s-2.49-6.12-6.74-6.12h-7.46v12.4h7.46Z"/>
          <path class="cls-1" d="m435.08,119.07l2.96-6.56c3.17,2.31,7.9,3.92,12.42,3.92,5.16,0,7.26-1.72,7.26-4.03,0-7.04-21.88-2.2-21.88-16.18,0-6.4,5.16-11.72,15.86-11.72,4.73,0,9.57,1.13,13.06,3.33l-2.69,6.61c-3.49-1.99-7.1-2.96-10.43-2.96-5.16,0-7.15,1.94-7.15,4.3,0,6.94,21.88,2.15,21.88,15.97,0,6.29-5.21,11.67-15.97,11.67-5.97,0-11.99-1.77-15.32-4.35Z"/>
          <path class="cls-1" d="m287.47,103.18c3.17-1.67,5.17-4.67,5.17-8.56,0-6.06-5-10.12-14.74-10.12h-19.02v38.92h20.13c10.23,0,15.57-3.89,15.57-10.62,0-4.89-2.78-8.23-7.12-9.62Zm-10.68-11.9c4.39,0,6.78,1.5,6.78,4.56s-2.39,4.62-6.78,4.62h-8.07v-9.17h8.07Zm1.56,25.36h-9.63v-9.62h9.63c4.67,0,7.17,1.56,7.17,4.84s-2.5,4.78-7.17,4.78Z"/>
          <path class="cls-1" d="m427.29,112.06c-1.38,1.08-5,3.46-10.1,3.55-.05,0-.1.02-.15.02-.02,0-.03,0-.05,0-.02,0-.04,0-.06,0h0c-6.54-.06-11.29-4.94-11.29-11.66s4.74-11.6,11.29-11.65h0s.04,0,.06,0c.02,0,.03,0,.05,0,.05,0,.1.02.15.02,5.09.08,8.72,2.47,10.1,3.55l3.07-6.79.04-.11c-3.54-2.78-8.12-4.46-13.36-4.46-11.88,0-20.59,8.28-20.59,19.46,0,11.18,8.71,19.46,20.59,19.46,5.24,0,9.82-1.68,13.36-4.46l-.04-.11-3.07-6.79Z"/>
          <path class="cls-1" d="m232.11,84.5c-11.88,0-20.59,8.28-20.59,19.46s8.71,19.46,20.59,19.46,20.59-8.23,20.59-19.46-8.76-19.46-20.59-19.46Zm11.4,19.46c0,6.76-4.79,11.66-11.4,11.66s-11.39-4.91-11.39-11.66,4.79-11.66,11.39-11.66,11.4,4.91,11.4,11.66Z"/>
          <polygon class="cls-1" points="341.83 84.5 341.83 91.84 341.83 92.28 353.87 92.28 353.87 123.42 354.29 123.42 354.29 123.42 363.29 123.42 363.29 123.42 363.71 123.42 363.71 92.28 375.75 92.28 375.75 91.84 375.75 84.5 341.83 84.5"/>
          <path class="cls-1" d="m319.86,84.5c-11.88,0-20.59,8.28-20.59,19.46s8.71,19.46,20.59,19.46,20.59-8.23,20.59-19.46-8.76-19.46-20.59-19.46Zm11.4,19.46c0,6.76-4.79,11.66-11.4,11.66s-11.39-4.91-11.39-11.66,4.79-11.66,11.39-11.66,11.4,4.91,11.4,11.66Z"/>
        </g>
      </g>
    </g>
  </g>
</svg>